<svg xmlns="http://www.w3.org/2000/svg" width="48" height="48">
  <rect width="100%" height="100%" fill="#155CFD" rx="8" ry="8" />
  <g transform="translate(24,24) scale(0.045) translate(-256,-256)">
    <path
      fill="white"
      d="M466.5 83.7L263.4 5.1c-5.6-2.1-11.8-2.1-17.4 0L45.5 83.7C35.1 87.6 28 97.4 28 108.6v144.8c0 94.7 55.2 181.4 141.1 221.9l68.1 31.9c4.4 2.1 9.5 2.1 13.9 0l68.1-31.9C428.8 434.8 484 348.1 484 253.4V108.6c0-11.2-7.1-21-17.5-24.9zM456 253.4c0 84.2-49.1 161.3-125.7 197.5L263.4 482V44.1l192.6 71.9V253.4z"
    />
  </g>
</svg>




